<?xml version="1.0" encoding="UTF-8" standalone="no"?>
<!DOCTYPE svg PUBLIC "-//W3C//DTD SVG 1.1//EN"
 "http://www.w3.org/Graphics/SVG/1.1/DTD/svg11.dtd">
<!-- Generated by graphviz version 2.43.0 (0)
 -->
<!-- Title: %3 Pages: 1 -->
<svg width="771pt" height="584pt"
 viewBox="0.00 0.00 771.00 584.00" xmlns="http://www.w3.org/2000/svg" xmlns:xlink="http://www.w3.org/1999/xlink">
<g id="graph0" class="graph" transform="scale(1 1) rotate(0) translate(4 580)">
<title>%3</title>
<polygon fill="white" stroke="transparent" points="-4,4 -4,-580 767,-580 767,4 -4,4"/>
<!-- 0 -->
<g id="node1" class="node">
<title>0</title>
<text text-anchor="middle" x="11.5" y="-392.3" font-family="Times,serif" font-size="14.00">0</text>
</g>
<!-- 0&#45;0&#45;1 -->
<g id="node2" class="node">
<title>0&#45;0&#45;1</title>
<polygon fill="none" stroke="black" points="133,-535 79,-535 79,-499 133,-499 133,-535"/>
<text text-anchor="middle" x="106" y="-513.3" font-family="Times,serif" font-size="14.00">blood</text>
</g>
<!-- 0&#45;&gt;0&#45;0&#45;1 -->
<g id="edge1" class="edge">
<title>0&#45;&gt;0&#45;0&#45;1</title>
<path fill="none" stroke="black" d="M20.73,-414.15C29.01,-431.33 42.83,-457.34 59,-477 65.45,-484.85 73.53,-492.44 81.12,-498.85"/>
</g>
<!-- 0&#45;1&#45;3 -->
<g id="node4" class="node">
<title>0&#45;1&#45;3</title>
<polygon fill="none" stroke="black" points="133,-414 79,-414 79,-378 133,-378 133,-414"/>
<text text-anchor="middle" x="106" y="-392.3" font-family="Times,serif" font-size="14.00">blood</text>
</g>
<!-- 0&#45;&gt;0&#45;1&#45;3 -->
<g id="edge3" class="edge">
<title>0&#45;&gt;0&#45;1&#45;3</title>
<path fill="none" stroke="black" d="M23.11,-396C36.59,-396 60.31,-396 78.76,-396"/>
</g>
<!-- 0&#45;2&#45;2 -->
<g id="node6" class="node">
<title>0&#45;2&#45;2</title>
<polygon fill="none" stroke="black" points="153,-468 59,-468 59,-432 153,-432 153,-468"/>
<text text-anchor="middle" x="106" y="-446.3" font-family="Times,serif" font-size="14.00">hematopoietic</text>
</g>
<!-- 0&#45;&gt;0&#45;2&#45;2 -->
<g id="edge5" class="edge">
<title>0&#45;&gt;0&#45;2&#45;2</title>
<path fill="none" stroke="black" d="M23.11,-402.19C35.45,-409.4 56.37,-421.61 73.98,-431.89"/>
</g>
<!-- 0&#45;3&#45;3 -->
<g id="node8" class="node">
<title>0&#45;3&#45;3</title>
<polygon fill="none" stroke="black" points="133,-360 79,-360 79,-324 133,-324 133,-360"/>
<text text-anchor="middle" x="106" y="-338.3" font-family="Times,serif" font-size="14.00">血液</text>
</g>
<!-- 0&#45;&gt;0&#45;3&#45;3 -->
<g id="edge7" class="edge">
<title>0&#45;&gt;0&#45;3&#45;3</title>
<path fill="none" stroke="black" d="M23.11,-389.81C36.59,-381.94 60.31,-368.09 78.76,-357.32"/>
</g>
<!-- 0&#45;4&#45;4 -->
<g id="node9" class="node">
<title>0&#45;4&#45;4</title>
<polygon fill="none" stroke="black" points="133,-225 79,-225 79,-189 133,-189 133,-225"/>
<text text-anchor="middle" x="106" y="-203.3" font-family="Times,serif" font-size="14.00">造血</text>
</g>
<!-- 0&#45;&gt;0&#45;4&#45;4 -->
<g id="edge9" class="edge">
<title>0&#45;&gt;0&#45;4&#45;4</title>
<path fill="none" stroke="#ff0000" d="M21.37,-377.88C39.05,-341.75 78.5,-261.15 96.16,-225.07"/>
</g>
<!-- 1 -->
<g id="node3" class="node">
<title>1</title>
<text text-anchor="middle" x="200.5" y="-527.3" font-family="Times,serif" font-size="14.00">1</text>
</g>
<!-- 0&#45;0&#45;1&#45;&gt;1 -->
<g id="edge2" class="edge">
<title>0&#45;0&#45;1&#45;&gt;1</title>
<path fill="none" stroke="#0000ff" d="M133.26,-520.97C147.61,-523.15 165.15,-525.8 178.57,-527.83"/>
<polygon fill="#0000ff" stroke="#0000ff" points="178.31,-531.33 188.72,-529.37 179.36,-524.41 178.31,-531.33"/>
</g>
<!-- 1&#45;0&#45;5 -->
<g id="node11" class="node">
<title>1&#45;0&#45;5</title>
<polygon fill="none" stroke="black" points="302,-576 248,-576 248,-540 302,-540 302,-576"/>
<text text-anchor="middle" x="275" y="-554.3" font-family="Times,serif" font-size="14.00">stem</text>
</g>
<!-- 1&#45;&gt;1&#45;0&#45;5 -->
<g id="edge11" class="edge">
<title>1&#45;&gt;1&#45;0&#45;5</title>
<path fill="none" stroke="#ff0000" d="M212.2,-534.98C221.57,-538.48 235.59,-543.69 247.9,-548.28"/>
</g>
<!-- 3 -->
<g id="node5" class="node">
<title>3</title>
<text text-anchor="middle" x="200.5" y="-338.3" font-family="Times,serif" font-size="14.00">3</text>
</g>
<!-- 0&#45;1&#45;3&#45;&gt;3 -->
<g id="edge4" class="edge">
<title>0&#45;1&#45;3&#45;&gt;3</title>
<path fill="none" stroke="#0000ff" d="M133.26,-380.67C148.04,-372.04 166.2,-361.44 179.77,-353.52"/>
<polygon fill="#0000ff" stroke="#0000ff" points="181.85,-356.36 188.72,-348.29 178.32,-350.31 181.85,-356.36"/>
</g>
<!-- 3&#45;0&#45;6 -->
<g id="node18" class="node">
<title>3&#45;0&#45;6</title>
<polygon fill="none" stroke="black" points="302,-360 248,-360 248,-324 302,-324 302,-360"/>
<text text-anchor="middle" x="275" y="-338.3" font-family="Times,serif" font-size="14.00">stem</text>
</g>
<!-- 3&#45;&gt;3&#45;0&#45;6 -->
<g id="edge19" class="edge">
<title>3&#45;&gt;3&#45;0&#45;6</title>
<path fill="none" stroke="#ff0000" d="M212.2,-342C221.57,-342 235.59,-342 247.9,-342"/>
</g>
<!-- 3&#45;1&#45;7 -->
<g id="node19" class="node">
<title>3&#45;1&#45;7</title>
<polygon fill="none" stroke="black" points="302,-252 248,-252 248,-216 302,-216 302,-252"/>
<text text-anchor="middle" x="275" y="-230.3" font-family="Times,serif" font-size="14.00">幹</text>
</g>
<!-- 3&#45;&gt;3&#45;1&#45;7 -->
<g id="edge21" class="edge">
<title>3&#45;&gt;3&#45;1&#45;7</title>
<path fill="none" stroke="black" d="M210.29,-323.84C218.87,-306.88 232.82,-281.23 248,-261 250.27,-257.98 252.84,-254.94 255.46,-252.05"/>
</g>
<!-- 2 -->
<g id="node7" class="node">
<title>2</title>
<text text-anchor="middle" x="200.5" y="-446.3" font-family="Times,serif" font-size="14.00">2</text>
</g>
<!-- 0&#45;2&#45;2&#45;&gt;2 -->
<g id="edge6" class="edge">
<title>0&#45;2&#45;2&#45;&gt;2</title>
<path fill="none" stroke="#0000ff" d="M153.25,-450C162.23,-450 171.21,-450 178.84,-450"/>
<polygon fill="#0000ff" stroke="#0000ff" points="178.89,-453.5 188.89,-450 178.89,-446.5 178.89,-453.5"/>
</g>
<!-- 2&#45;0&#45;5 -->
<g id="node13" class="node">
<title>2&#45;0&#45;5</title>
<polygon fill="none" stroke="black" points="302,-522 248,-522 248,-486 302,-486 302,-522"/>
<text text-anchor="middle" x="275" y="-500.3" font-family="Times,serif" font-size="14.00">stem</text>
</g>
<!-- 2&#45;&gt;2&#45;0&#45;5 -->
<g id="edge13" class="edge">
<title>2&#45;&gt;2&#45;0&#45;5</title>
<path fill="none" stroke="black" d="M212.2,-457.97C222.04,-465.3 237.01,-476.45 249.75,-485.94"/>
</g>
<!-- 2&#45;1&#45;6 -->
<g id="node14" class="node">
<title>2&#45;1&#45;6</title>
<polygon fill="none" stroke="black" points="302,-414 248,-414 248,-378 302,-378 302,-414"/>
<text text-anchor="middle" x="275" y="-392.3" font-family="Times,serif" font-size="14.00">stem</text>
</g>
<!-- 2&#45;&gt;2&#45;1&#45;6 -->
<g id="edge15" class="edge">
<title>2&#45;&gt;2&#45;1&#45;6</title>
<path fill="none" stroke="#ff0000" d="M212.2,-442.03C222.04,-434.7 237.01,-423.55 249.75,-414.06"/>
</g>
<!-- 2&#45;2&#45;10 -->
<g id="node16" class="node">
<title>2&#45;2&#45;10</title>
<polygon fill="none" stroke="black" points="302,-468 248,-468 248,-432 302,-432 302,-468"/>
<text text-anchor="middle" x="275" y="-446.3" font-family="Times,serif" font-size="14.00">幹</text>
</g>
<!-- 2&#45;&gt;2&#45;2&#45;10 -->
<g id="edge17" class="edge">
<title>2&#45;&gt;2&#45;2&#45;10</title>
<path fill="none" stroke="black" d="M212.2,-450C221.57,-450 235.59,-450 247.9,-450"/>
</g>
<!-- 0&#45;3&#45;3&#45;&gt;3 -->
<g id="edge8" class="edge">
<title>0&#45;3&#45;3&#45;&gt;3</title>
<path fill="none" stroke="black" d="M133.26,-342C147.61,-342 165.15,-342 178.57,-342"/>
<polygon fill="black" stroke="black" points="178.72,-345.5 188.72,-342 178.72,-338.5 178.72,-345.5"/>
</g>
<!-- 4 -->
<g id="node10" class="node">
<title>4</title>
<text text-anchor="middle" x="200.5" y="-149.3" font-family="Times,serif" font-size="14.00">4</text>
</g>
<!-- 0&#45;4&#45;4&#45;&gt;4 -->
<g id="edge10" class="edge">
<title>0&#45;4&#45;4&#45;&gt;4</title>
<path fill="none" stroke="#0000ff" d="M133.26,-191.67C148.04,-183.04 166.2,-172.44 179.77,-164.52"/>
<polygon fill="#0000ff" stroke="#0000ff" points="181.85,-167.36 188.72,-159.29 178.32,-161.31 181.85,-167.36"/>
</g>
<!-- 4&#45;0&#45;11 -->
<g id="node21" class="node">
<title>4&#45;0&#45;11</title>
<polygon fill="none" stroke="black" points="302,-90 248,-90 248,-54 302,-54 302,-90"/>
<text text-anchor="middle" x="275" y="-68.3" font-family="Times,serif" font-size="14.00">rescue</text>
</g>
<!-- 4&#45;&gt;4&#45;0&#45;11 -->
<g id="edge23" class="edge">
<title>4&#45;&gt;4&#45;0&#45;11</title>
<path fill="none" stroke="black" d="M212.02,-140.39C221.32,-129.33 235.34,-112.9 248,-99 250.63,-96.11 253.45,-93.1 256.24,-90.17"/>
</g>
<!-- 4&#45;1&#45;8 -->
<g id="node23" class="node">
<title>4&#45;1&#45;8</title>
<polygon fill="none" stroke="black" points="302,-144 248,-144 248,-108 302,-108 302,-144"/>
<text text-anchor="middle" x="275" y="-122.3" font-family="Times,serif" font-size="14.00">stem</text>
</g>
<!-- 4&#45;&gt;4&#45;1&#45;8 -->
<g id="edge25" class="edge">
<title>4&#45;&gt;4&#45;1&#45;8</title>
<path fill="none" stroke="black" d="M212.2,-149.02C221.57,-145.52 235.59,-140.31 247.9,-135.72"/>
</g>
<!-- 4&#45;2&#45;9 -->
<g id="node25" class="node">
<title>4&#45;2&#45;9</title>
<polygon fill="none" stroke="black" points="302,-198 248,-198 248,-162 302,-162 302,-198"/>
<text text-anchor="middle" x="275" y="-176.3" font-family="Times,serif" font-size="14.00">幹</text>
</g>
<!-- 4&#45;&gt;4&#45;2&#45;9 -->
<g id="edge27" class="edge">
<title>4&#45;&gt;4&#45;2&#45;9</title>
<path fill="none" stroke="#ff0000" d="M212.2,-156.98C221.57,-160.48 235.59,-165.69 247.9,-170.28"/>
</g>
<!-- 4&#45;3&#45;10 -->
<g id="node27" class="node">
<title>4&#45;3&#45;10</title>
<polygon fill="none" stroke="black" points="302,-306 248,-306 248,-270 302,-270 302,-306"/>
<text text-anchor="middle" x="275" y="-284.3" font-family="Times,serif" font-size="14.00">幹</text>
</g>
<!-- 4&#45;&gt;4&#45;3&#45;10 -->
<g id="edge29" class="edge">
<title>4&#45;&gt;4&#45;3&#45;10</title>
<path fill="none" stroke="black" d="M207.08,-171.2C214.42,-193.51 228.68,-231.93 248,-261 250.02,-264.04 252.4,-267.03 254.88,-269.87"/>
</g>
<!-- 4&#45;4&#45;11 -->
<g id="node28" class="node">
<title>4&#45;4&#45;11</title>
<polygon fill="none" stroke="black" points="302,-36 248,-36 248,0 302,0 302,-36"/>
<text text-anchor="middle" x="275" y="-14.3" font-family="Times,serif" font-size="14.00">救命</text>
</g>
<!-- 4&#45;&gt;4&#45;4&#45;11 -->
<g id="edge31" class="edge">
<title>4&#45;&gt;4&#45;4&#45;11</title>
<path fill="none" stroke="black" d="M207.08,-134.8C214.42,-112.49 228.68,-74.07 248,-45 250.02,-41.96 252.4,-38.97 254.88,-36.13"/>
</g>
<!-- 5 -->
<g id="node12" class="node">
<title>5</title>
<text text-anchor="middle" x="353" y="-500.3" font-family="Times,serif" font-size="14.00">5</text>
</g>
<!-- 1&#45;0&#45;5&#45;&gt;5 -->
<g id="edge12" class="edge">
<title>1&#45;0&#45;5&#45;&gt;5</title>
<path fill="none" stroke="black" d="M301.73,-539.72C311.91,-532.48 323.41,-524.31 332.84,-517.62"/>
<polygon fill="black" stroke="black" points="335.01,-520.37 341.13,-511.72 330.95,-514.66 335.01,-520.37"/>
</g>
<!-- 5&#45;0&#45;14 -->
<g id="node29" class="node">
<title>5&#45;0&#45;14</title>
<polygon fill="none" stroke="black" points="458,-515 404,-515 404,-479 458,-479 458,-515"/>
<text text-anchor="middle" x="431" y="-493.3" font-family="Times,serif" font-size="14.00">cell</text>
</g>
<!-- 5&#45;&gt;5&#45;0&#45;14 -->
<g id="edge33" class="edge">
<title>5&#45;&gt;5&#45;0&#45;14</title>
<path fill="none" stroke="#ff0000" d="M364.57,-503.03C374.68,-502.1 390.35,-500.65 403.82,-499.41"/>
</g>
<!-- 2&#45;0&#45;5&#45;&gt;5 -->
<g id="edge14" class="edge">
<title>2&#45;0&#45;5&#45;&gt;5</title>
<path fill="none" stroke="#0000ff" d="M302.15,-504C311.57,-504 322.07,-504 331,-504"/>
<polygon fill="#0000ff" stroke="#0000ff" points="331.26,-507.5 341.26,-504 331.26,-500.5 331.26,-507.5"/>
</g>
<!-- 6 -->
<g id="node15" class="node">
<title>6</title>
<text text-anchor="middle" x="353" y="-361.3" font-family="Times,serif" font-size="14.00">6</text>
</g>
<!-- 2&#45;1&#45;6&#45;&gt;6 -->
<g id="edge16" class="edge">
<title>2&#45;1&#45;6&#45;&gt;6</title>
<path fill="none" stroke="black" d="M302.15,-385.33C311.89,-381.36 322.77,-376.92 331.88,-373.21"/>
<polygon fill="black" stroke="black" points="333.32,-376.4 341.26,-369.38 330.68,-369.92 333.32,-376.4"/>
</g>
<!-- 6&#45;0&#45;12 -->
<g id="node31" class="node">
<title>6&#45;0&#45;12</title>
<polygon fill="none" stroke="black" points="458,-383 404,-383 404,-347 458,-347 458,-383"/>
<text text-anchor="middle" x="431" y="-361.3" font-family="Times,serif" font-size="14.00">cell</text>
</g>
<!-- 6&#45;&gt;6&#45;0&#45;12 -->
<g id="edge35" class="edge">
<title>6&#45;&gt;6&#45;0&#45;12</title>
<path fill="none" stroke="#ff0000" d="M364.57,-365C374.68,-365 390.35,-365 403.82,-365"/>
</g>
<!-- 10 -->
<g id="node17" class="node">
<title>10</title>
<text text-anchor="middle" x="353" y="-431.3" font-family="Times,serif" font-size="14.00">10</text>
</g>
<!-- 2&#45;2&#45;10&#45;&gt;10 -->
<g id="edge18" class="edge">
<title>2&#45;2&#45;10&#45;&gt;10</title>
<path fill="none" stroke="black" d="M302.15,-444.84C310.51,-443.19 319.72,-441.37 327.93,-439.75"/>
<polygon fill="black" stroke="black" points="328.84,-443.14 337.98,-437.77 327.49,-436.27 328.84,-443.14"/>
</g>
<!-- 10&#45;0&#45;14 -->
<g id="node39" class="node">
<title>10&#45;0&#45;14</title>
<polygon fill="none" stroke="black" points="458,-453 404,-453 404,-417 458,-417 458,-453"/>
<text text-anchor="middle" x="431" y="-431.3" font-family="Times,serif" font-size="14.00">細胞</text>
</g>
<!-- 10&#45;&gt;10&#45;0&#45;14 -->
<g id="edge47" class="edge">
<title>10&#45;&gt;10&#45;0&#45;14</title>
<path fill="none" stroke="#ff0000" d="M368.3,-435C378.27,-435 391.88,-435 403.77,-435"/>
</g>
<!-- 3&#45;0&#45;6&#45;&gt;6 -->
<g id="edge20" class="edge">
<title>3&#45;0&#45;6&#45;&gt;6</title>
<path fill="none" stroke="#0000ff" d="M302.15,-349.92C311.78,-352.83 322.54,-356.08 331.59,-358.82"/>
<polygon fill="#0000ff" stroke="#0000ff" points="330.67,-362.2 341.26,-361.75 332.7,-355.5 330.67,-362.2"/>
</g>
<!-- 7 -->
<g id="node20" class="node">
<title>7</title>
<text text-anchor="middle" x="353" y="-257.3" font-family="Times,serif" font-size="14.00">7</text>
</g>
<!-- 3&#45;1&#45;7&#45;&gt;7 -->
<g id="edge22" class="edge">
<title>3&#45;1&#45;7&#45;&gt;7</title>
<path fill="none" stroke="#0000ff" d="M302.15,-243.29C311.78,-246.71 322.54,-250.53 331.59,-253.75"/>
<polygon fill="#0000ff" stroke="#0000ff" points="330.66,-257.13 341.26,-257.18 333.01,-250.54 330.66,-257.13"/>
</g>
<!-- 7&#45;0&#45;12 -->
<g id="node33" class="node">
<title>7&#45;0&#45;12</title>
<polygon fill="none" stroke="black" points="458,-329 404,-329 404,-293 458,-293 458,-329"/>
<text text-anchor="middle" x="431" y="-307.3" font-family="Times,serif" font-size="14.00">細胞</text>
</g>
<!-- 7&#45;&gt;7&#45;0&#45;12 -->
<g id="edge37" class="edge">
<title>7&#45;&gt;7&#45;0&#45;12</title>
<path fill="none" stroke="#ff0000" d="M364.57,-267.95C374.68,-274.61 390.35,-284.91 403.82,-293.78"/>
</g>
<!-- 11 -->
<g id="node22" class="node">
<title>11</title>
<text text-anchor="middle" x="353" y="-45.3" font-family="Times,serif" font-size="14.00">11</text>
</g>
<!-- 4&#45;0&#45;11&#45;&gt;11 -->
<g id="edge24" class="edge">
<title>4&#45;0&#45;11&#45;&gt;11</title>
<path fill="none" stroke="#0000ff" d="M302.15,-64.08C310.61,-61.53 319.93,-58.71 328.2,-56.2"/>
<polygon fill="#0000ff" stroke="#0000ff" points="329.42,-59.49 337.98,-53.24 327.39,-52.79 329.42,-59.49"/>
</g>
<!-- 11&#45;0&#45;15 -->
<g id="node40" class="node">
<title>11&#45;0&#45;15</title>
<polygon fill="none" stroke="black" points="564,-90 494,-90 494,-54 564,-54 564,-90"/>
<text text-anchor="middle" x="529" y="-68.3" font-family="Times,serif" font-size="14.00">transplant</text>
</g>
<!-- 11&#45;&gt;11&#45;0&#45;15 -->
<g id="edge49" class="edge">
<title>11&#45;&gt;11&#45;0&#45;15</title>
<path fill="none" stroke="#ff0000" d="M368.24,-50.88C395.43,-54.48 455.43,-62.41 493.67,-67.46"/>
</g>
<!-- 8 -->
<g id="node24" class="node">
<title>8</title>
<text text-anchor="middle" x="353" y="-122.3" font-family="Times,serif" font-size="14.00">8</text>
</g>
<!-- 4&#45;1&#45;8&#45;&gt;8 -->
<g id="edge26" class="edge">
<title>4&#45;1&#45;8&#45;&gt;8</title>
<path fill="none" stroke="#0000ff" d="M302.15,-126C311.57,-126 322.07,-126 331,-126"/>
<polygon fill="#0000ff" stroke="#0000ff" points="331.26,-129.5 341.26,-126 331.26,-122.5 331.26,-129.5"/>
</g>
<!-- 8&#45;0&#45;12 -->
<g id="node34" class="node">
<title>8&#45;0&#45;12</title>
<polygon fill="none" stroke="black" points="458,-221 404,-221 404,-185 458,-185 458,-221"/>
<text text-anchor="middle" x="431" y="-199.3" font-family="Times,serif" font-size="14.00">cell</text>
</g>
<!-- 8&#45;&gt;8&#45;0&#45;12 -->
<g id="edge39" class="edge">
<title>8&#45;&gt;8&#45;0&#45;12</title>
<path fill="none" stroke="#ff0000" d="M364.57,-136.71C376.89,-149.19 397.44,-170.01 412.22,-184.99"/>
</g>
<!-- 8&#45;1&#45;13 -->
<g id="node35" class="node">
<title>8&#45;1&#45;13</title>
<polygon fill="none" stroke="black" points="458,-113 404,-113 404,-77 458,-77 458,-113"/>
<text text-anchor="middle" x="431" y="-91.3" font-family="Times,serif" font-size="14.00">cell</text>
</g>
<!-- 8&#45;&gt;8&#45;1&#45;13 -->
<g id="edge41" class="edge">
<title>8&#45;&gt;8&#45;1&#45;13</title>
<path fill="none" stroke="black" d="M364.57,-121.69C374.68,-117.56 390.35,-111.17 403.82,-105.68"/>
</g>
<!-- 9 -->
<g id="node26" class="node">
<title>9</title>
<text text-anchor="middle" x="353" y="-176.3" font-family="Times,serif" font-size="14.00">9</text>
</g>
<!-- 4&#45;2&#45;9&#45;&gt;9 -->
<g id="edge28" class="edge">
<title>4&#45;2&#45;9&#45;&gt;9</title>
<path fill="none" stroke="#0000ff" d="M302.15,-180C311.57,-180 322.07,-180 331,-180"/>
<polygon fill="#0000ff" stroke="#0000ff" points="331.26,-183.5 341.26,-180 331.26,-176.5 331.26,-183.5"/>
</g>
<!-- 9&#45;0&#45;12 -->
<g id="node37" class="node">
<title>9&#45;0&#45;12</title>
<polygon fill="none" stroke="black" points="458,-275 404,-275 404,-239 458,-239 458,-275"/>
<text text-anchor="middle" x="431" y="-253.3" font-family="Times,serif" font-size="14.00">細胞</text>
</g>
<!-- 9&#45;&gt;9&#45;0&#45;12 -->
<g id="edge43" class="edge">
<title>9&#45;&gt;9&#45;0&#45;12</title>
<path fill="none" stroke="#ff0000" d="M364.57,-190.71C376.89,-203.19 397.44,-224.01 412.22,-238.99"/>
</g>
<!-- 9&#45;1&#45;13 -->
<g id="node38" class="node">
<title>9&#45;1&#45;13</title>
<polygon fill="none" stroke="black" points="458,-167 404,-167 404,-131 458,-131 458,-167"/>
<text text-anchor="middle" x="431" y="-145.3" font-family="Times,serif" font-size="14.00">細胞</text>
</g>
<!-- 9&#45;&gt;9&#45;1&#45;13 -->
<g id="edge45" class="edge">
<title>9&#45;&gt;9&#45;1&#45;13</title>
<path fill="none" stroke="black" d="M364.57,-175.69C374.68,-171.56 390.35,-165.17 403.82,-159.68"/>
</g>
<!-- 4&#45;3&#45;10&#45;&gt;10 -->
<g id="edge30" class="edge">
<title>4&#45;3&#45;10&#45;&gt;10</title>
<path fill="none" stroke="#0000ff" d="M295.15,-306.11C297.63,-308.95 300,-311.95 302,-315 312.34,-330.77 330.49,-377.08 341.84,-407.35"/>
<polygon fill="#0000ff" stroke="#0000ff" points="338.64,-408.78 345.41,-416.93 345.2,-406.33 338.64,-408.78"/>
</g>
<!-- 4&#45;4&#45;11&#45;&gt;11 -->
<g id="edge32" class="edge">
<title>4&#45;4&#45;11&#45;&gt;11</title>
<path fill="none" stroke="black" d="M302.15,-28.67C310.7,-32.15 320.14,-36 328.48,-39.41"/>
<polygon fill="black" stroke="black" points="327.4,-42.74 337.98,-43.28 330.04,-36.26 327.4,-42.74"/>
</g>
<!-- 14 -->
<g id="node30" class="node">
<title>14</title>
<text text-anchor="middle" x="529" y="-431.3" font-family="Times,serif" font-size="14.00">14</text>
</g>
<!-- 5&#45;0&#45;14&#45;&gt;14 -->
<g id="edge34" class="edge">
<title>5&#45;0&#45;14&#45;&gt;14</title>
<path fill="none" stroke="#0000ff" d="M458.23,-480.06C472.99,-470.53 491.22,-458.75 505.35,-449.63"/>
<polygon fill="#0000ff" stroke="#0000ff" points="507.46,-452.43 513.96,-444.07 503.66,-446.55 507.46,-452.43"/>
</g>
<!-- 14&#45;0&#45;15 -->
<g id="node44" class="node">
<title>14&#45;0&#45;15</title>
<polygon fill="none" stroke="black" points="697,-380 600,-380 600,-344 697,-344 697,-380"/>
<text text-anchor="middle" x="648.5" y="-358.3" font-family="Times,serif" font-size="14.00">transplantation</text>
</g>
<!-- 14&#45;&gt;14&#45;0&#45;15 -->
<g id="edge55" class="edge">
<title>14&#45;&gt;14&#45;0&#45;15</title>
<path fill="none" stroke="#ff0000" d="M544.41,-426.05C562.67,-414.7 594.6,-394.87 618.1,-380.27"/>
</g>
<!-- 12 -->
<g id="node32" class="node">
<title>12</title>
<text text-anchor="middle" x="529" y="-253.3" font-family="Times,serif" font-size="14.00">12</text>
</g>
<!-- 6&#45;0&#45;12&#45;&gt;12 -->
<g id="edge36" class="edge">
<title>6&#45;0&#45;12&#45;&gt;12</title>
<path fill="none" stroke="black" d="M449.76,-346.83C452.54,-343.9 455.37,-340.88 458,-338 474.85,-319.53 493.33,-298.1 507.06,-281.92"/>
<polygon fill="black" stroke="black" points="509.99,-283.88 513.78,-273.99 504.65,-279.36 509.99,-283.88"/>
</g>
<!-- 12&#45;0&#45;15 -->
<g id="node42" class="node">
<title>12&#45;0&#45;15</title>
<polygon fill="none" stroke="black" points="675.5,-261 621.5,-261 621.5,-225 675.5,-225 675.5,-261"/>
<text text-anchor="middle" x="648.5" y="-239.3" font-family="Times,serif" font-size="14.00">移植</text>
</g>
<!-- 12&#45;&gt;12&#45;0&#45;15 -->
<g id="edge51" class="edge">
<title>12&#45;&gt;12&#45;0&#45;15</title>
<path fill="none" stroke="#ff0000" d="M544.41,-255.28C563.53,-253.01 597.63,-248.94 621.35,-246.12"/>
</g>
<!-- 7&#45;0&#45;12&#45;&gt;12 -->
<g id="edge38" class="edge">
<title>7&#45;0&#45;12&#45;&gt;12</title>
<path fill="none" stroke="black" d="M458.23,-296.24C472.85,-288.02 490.88,-277.88 504.95,-269.97"/>
<polygon fill="black" stroke="black" points="506.96,-272.85 513.96,-264.9 503.53,-266.75 506.96,-272.85"/>
</g>
<!-- 8&#45;0&#45;12&#45;&gt;12 -->
<g id="edge40" class="edge">
<title>8&#45;0&#45;12&#45;&gt;12</title>
<path fill="none" stroke="black" d="M458.23,-217.76C472.85,-225.98 490.88,-236.12 504.95,-244.03"/>
<polygon fill="black" stroke="black" points="503.53,-247.25 513.96,-249.1 506.96,-241.15 503.53,-247.25"/>
</g>
<!-- 13 -->
<g id="node36" class="node">
<title>13</title>
<text text-anchor="middle" x="529" y="-145.3" font-family="Times,serif" font-size="14.00">13</text>
</g>
<!-- 8&#45;1&#45;13&#45;&gt;13 -->
<g id="edge42" class="edge">
<title>8&#45;1&#45;13&#45;&gt;13</title>
<path fill="none" stroke="#0000ff" d="M458.23,-109.76C472.85,-117.98 490.88,-128.12 504.95,-136.03"/>
<polygon fill="#0000ff" stroke="#0000ff" points="503.53,-139.25 513.96,-141.1 506.96,-133.15 503.53,-139.25"/>
</g>
<!-- 13&#45;0&#45;15 -->
<g id="node43" class="node">
<title>13&#45;0&#45;15</title>
<polygon fill="none" stroke="black" points="675.5,-194 621.5,-194 621.5,-158 675.5,-158 675.5,-194"/>
<text text-anchor="middle" x="648.5" y="-172.3" font-family="Times,serif" font-size="14.00">rescue</text>
</g>
<!-- 13&#45;&gt;13&#45;0&#45;15 -->
<g id="edge53" class="edge">
<title>13&#45;&gt;13&#45;0&#45;15</title>
<path fill="none" stroke="#ff0000" d="M544.41,-152.31C563.53,-156.7 597.63,-164.54 621.35,-169.99"/>
</g>
<!-- 9&#45;0&#45;12&#45;&gt;12 -->
<g id="edge44" class="edge">
<title>9&#45;0&#45;12&#45;&gt;12</title>
<path fill="none" stroke="#0000ff" d="M458.23,-257C472.43,-257 489.84,-257 503.72,-257"/>
<polygon fill="#0000ff" stroke="#0000ff" points="503.96,-260.5 513.96,-257 503.96,-253.5 503.96,-260.5"/>
</g>
<!-- 9&#45;1&#45;13&#45;&gt;13 -->
<g id="edge46" class="edge">
<title>9&#45;1&#45;13&#45;&gt;13</title>
<path fill="none" stroke="black" d="M458.23,-149C472.43,-149 489.84,-149 503.72,-149"/>
<polygon fill="black" stroke="black" points="503.96,-152.5 513.96,-149 503.96,-145.5 503.96,-152.5"/>
</g>
<!-- 10&#45;0&#45;14&#45;&gt;14 -->
<g id="edge48" class="edge">
<title>10&#45;0&#45;14&#45;&gt;14</title>
<path fill="none" stroke="black" d="M458.23,-435C472.43,-435 489.84,-435 503.72,-435"/>
<polygon fill="black" stroke="black" points="503.96,-438.5 513.96,-435 503.96,-431.5 503.96,-438.5"/>
</g>
<!-- 15 -->
<g id="node41" class="node">
<title>15</title>
<text text-anchor="middle" x="748" y="-199.3" font-family="Times,serif" font-size="14.00">15</text>
</g>
<!-- 11&#45;0&#45;15&#45;&gt;15 -->
<g id="edge50" class="edge">
<title>11&#45;0&#45;15&#45;&gt;15</title>
<path fill="none" stroke="black" d="M564.08,-83.23C599.39,-95.85 655.15,-118.62 697,-149 707.82,-156.86 718.16,-167.32 726.59,-176.94"/>
<polygon fill="black" stroke="black" points="724.07,-179.38 733.2,-184.75 729.41,-174.85 724.07,-179.38"/>
</g>
<!-- 12&#45;0&#45;15&#45;&gt;15 -->
<g id="edge52" class="edge">
<title>12&#45;0&#45;15&#45;&gt;15</title>
<path fill="none" stroke="#0000ff" d="M675.63,-232.28C690.57,-226.15 709.15,-218.53 723.61,-212.6"/>
<polygon fill="#0000ff" stroke="#0000ff" points="724.94,-215.83 732.87,-208.8 722.29,-209.36 724.94,-215.83"/>
</g>
<!-- 13&#45;0&#45;15&#45;&gt;15 -->
<g id="edge54" class="edge">
<title>13&#45;0&#45;15&#45;&gt;15</title>
<path fill="none" stroke="black" d="M675.63,-183.24C690.43,-187.33 708.8,-192.42 723.19,-196.41"/>
<polygon fill="black" stroke="black" points="722.3,-199.79 732.87,-199.09 724.16,-193.04 722.3,-199.79"/>
</g>
<!-- 14&#45;0&#45;15&#45;&gt;15 -->
<g id="edge56" class="edge">
<title>14&#45;0&#45;15&#45;&gt;15</title>
<path fill="none" stroke="black" d="M660.68,-343.76C677.8,-315.85 710.6,-262.36 730.47,-229.96"/>
<polygon fill="black" stroke="black" points="733.7,-231.38 735.95,-221.03 727.73,-227.72 733.7,-231.38"/>
</g>
</g>
</svg>
